<svg xmlns="http://www.w3.org/2000/svg" viewBox="0 0 512 512" preserveAspectRatio="xMidYMid meet">
  <rect width="512" height="512" fill="#ffffff"/>
  <g transform="translate(95 475) scale(0.62 -0.62)" fill="#000000" stroke="none">
    <path d="M982 5083 l3 -1128 28 -90 c69 -221 212 -385 421 -480 82 -38 184 -65 243 -65 22 0 68 -3 102 -6 l61 -7 0 -1223 0 -1224 190 0 190 0 0 1231 c0 1119 1 1231 16 1225 9 -3 211 -6 449 -6 l434 0 4 -932 c3 -917 4 -934 25 -1010 75 -271 271 -470 542 -549 68 -20 104 -22 373 -26 l297 -5 0 1093 c-1 1190 0 1173 -57 1320 -117 301 -405 489 -750 489 l-53 0 -2 1228 -3 1227 -185 0 -185 0 -3 -1227 -2 -1228 -450 0 -450 0 0 859 c0 528 -4 899 -11 962 -11 118 -49 239 -100 327 -19 31 -77 100 -129 152 -76 76 -111 103 -175 134 -158 78 -164 79 -513 83 l-313 5 3 -1129z m630 720 c83 -39 154 -108 194 -188 l29 -60 3 -934 2 -933 -97 4 c-78 3 -109 9 -153 29 -76 35 -160 115 -195 186 l-30 58 -5 925 c-3 509 -3 931 -1 939 3 10 24 12 95 9 76 -3 102 -9 158 -35z m2150 -2527 c116 -58 199 -174 218 -303 6 -40 10 -422 10 -935 l0 -866 -52 -4 c-177 -12 -335 75 -404 225 l-29 62 -3 929 -2 928 102 -4 c88 -3 111 -8 160 -32z"/>
    <path d="M3997 6144 c-4 -4 -7 -472 -7 -1040 l0 -1032 25 -6 c51 -13 176 -77 255 -131 45 -30 83 -55 85 -55 3 0 4 510 3 1133 l-3 1132 -176 3 c-96 1 -178 -1 -182 -4z"/>
    <path d="M980 1990 l0 -1130 190 0 190 0 -2 1030 -3 1030 -97 44 c-54 24 -135 69 -182 100 -46 31 -87 56 -90 56 -3 0 -6 -508 -6 -1130z"/>
  </g>
</svg>